<svg width="1440" height="604" viewBox="0 0 1440 604" fill="none" xmlns="http://www.w3.org/2000/svg">
<g opacity="0.2">
<circle opacity="0.1" cx="1534.68" cy="-512.802" r="686.454" stroke="white" stroke-width="3"/>
<circle opacity="0.1" cx="1719.73" cy="-682.105" r="686.454" stroke="white" stroke-width="3"/>
<circle opacity="0.1" cx="1306.65" cy="-398.789" r="686.454" stroke="white" stroke-width="3"/>
<circle opacity="0.1" cx="1127.33" cy="-322.411" r="727.41" stroke="white" stroke-width="3"/>
<path opacity="0.1" d="M1728.78 -202.681C1728.78 252.025 1374.22 620.537 936.986 620.537C499.746 620.537 145.195 252.025 145.195 -202.681C145.195 -657.387 499.746 -1025.9 936.986 -1025.9C1374.22 -1025.9 1728.78 -657.387 1728.78 -202.681Z" stroke="white" stroke-width="3"/>
<path opacity="0.1" d="M1794.67 -181.391C1794.67 340.424 1364.63 763.481 834.086 763.481C303.546 763.481 -126.5 340.424 -126.5 -181.391C-126.5 -703.207 303.546 -1126.26 834.086 -1126.26C1364.63 -1126.26 1794.67 -703.207 1794.67 -181.391Z" stroke="white" stroke-width="3"/>
</g>
</svg>
